<?xml version="1.0" encoding="utf-8"?>
<!-- Generator: Adobe Illustrator 19.0.1, SVG Export Plug-In . SVG Version: 6.00 Build 0)  -->
<svg version="1.1" id="Layer_1" xmlns="http://www.w3.org/2000/svg" xmlns:xlink="http://www.w3.org/1999/xlink" x="0px" y="0px"
	 viewBox="0 0 612 792" style="enable-background:new 0 0 612 792;" xml:space="preserve">
<style type="text/css">
	.st0{fill:#FEFDFD;}
	.st1{fill:#CDAF61;}
	.st2{fill:#CDAE5F;}
	.st3{fill:#CDAF60;}
	.st4{fill:#CEB164;}
	.st5{fill:#CEB063;}
	.st6{fill:#CBAB5A;}
	.st7{fill:#CBAB58;}
	.st8{fill:#D1B46C;}
	.st9{fill:#D4BB78;}
	.st10{fill:#C7A54E;}
	.st11{fill:#DDC995;}
	.st12{fill:#F2EBD8;}
	.st13{fill:#FDFDFC;}
	.st14{fill:#F8F5EC;}
	.st15{fill:#F7F3E8;}
	.st16{fill:#F5EFE0;}
</style>
<g>
	<g>
		<path class="st0" d="M306.5,438c-26.7,0-53.3,0-80,0c-1.3,0-1.5-0.2-1.5-1.5c0.1-26.2,0.1-52.3,0-78.5c0-1.7,0.3-2.1,2.1-2.1
			c43.3,0.1,86.7,0.1,130,0.1c10.2,0,20.3,0,30.5,0c1.3,0,1.5,0.2,1.5,1.5c-0.1,26.3-0.1,52.7,0,79c0,1.3-0.2,1.5-1.5,1.5
			C360.5,438,333.5,438,306.5,438z M354,380c-0.7,0.1-1.8-0.5-2,0.8c-0.2,1.7,1.1,1.2,2,1.2c0.3,0.1,0.6,0.2,0.9,0.3
			c0.6,0.2,1.1,0.4,1.7,0.6c0.2-0.6,0.6-1.3,0.4-1.8c-0.4-0.8-1.1-1.5-1.7-2.1C355.2,379,354.4,379.7,354,380z M249,375
			c0.4,0.3,0.7,0.7,1.1,1c0.1,0.1,0.5-0.2,0.7-0.4c-0.3-0.2-0.6-0.4-0.9-0.6c0.4-3.9-1.4-7.4-2.1-11.1c-0.1-0.4-1-1-1.3-0.9
			c-1.3,0.4-2.6,0.9-3.8,1.6c-0.9,0.5-1.3,1.3-0.3,2.4C244.7,369.7,246.8,372.3,249,375z M360,391c0.3,0,0.7,0,1,0c0,1,0.1,2,0,3
			c-0.2,1.4,0.5,1.8,1.7,2.3c3.4,1.4,6.7,0.6,10.1,0.5c0.1,0,0.3-0.2,0.3-0.3c0.3-0.5,0.6-1.1,0.9-1.6c-0.5-0.2-1-0.7-1.5-0.7
			c-2.5-0.1-5,0-7.5-0.1c-0.2,0-0.7-0.7-0.7-0.7c0.7-0.7,1.3-1.5,2.1-2.1c0.1-0.1,0.9,0.7,1.4,1.1c1.1,1,1.6,1.3,2.3-0.5
			c0.7-1.5,1-3.8,3.5-4c0.5,0,1.3-1.2,1.3-1.9c-0.1-1.6-1.5-0.9-2.3-0.8c-1.9,0.2-3.4-0.6-5.1-1c-1.1-0.3-2.2-0.3-3.4-0.4
			c0.9-1.3,2.3-0.5,3.4-0.6c1.3-0.1,2.7-0.1,4,0c1,0.1,1.4-0.3,1.5-1.4c0.1-1.3-0.4-1.7-1.7-1.7c-2.4,0-5,0.9-6.8-1.8
			c-0.1-0.2-1.1-0.1-1.3,0.1c-1,1.6-2.7,1.5-4.1,2.2c-0.6,0.3-0.8,1.3-1.2,2c0.6,0.2,1.1,0.5,1.7,0.6c1.6,0.4,1.8,0.8,0.6,2.2
			c-1.2,1.3-2.2,2.6-2.3,4.6C357.9,391.4,359.1,390.9,360,391z M273.4,431.4c2,0,3-0.6,2.6-2.7c0-0.1,0.1-0.3,0.2-0.4
			c3.5-6.9,6.3-14,9.2-21.1c2.5-6.1,5.4-12.1,8-18.1c0.3-0.8,0.6-1.9,0.3-2.7c-1.8-4.6-3.7-9.1-5.6-13.7c-0.3-0.9-0.5-1.4-1.7-1.8
			c-3.6-1.3-6.9-3.6-10.5-4.7c-2.1-0.7-3.9-1.8-5.9-2.7c-1.6-0.7-3.2-0.6-4.7-0.2c-0.4,0.1-0.3,1.8-0.8,2.6
			c-3.4,6.9-6.1,14.1-9.2,21.2c-2.6,6.1-5.5,12-8,18.1c-1,2.4-1.9,4.9-3.1,7.2c-0.8,1.5-1.4,3.3-1.2,4.9c0.3,1.9,2.6,2,4,2.8
			c1.1,0.6,2.1,1.5,3.2,1.8c6.9,2.1,13.3,5.7,20.1,8.2C271.5,430.4,272.4,430.9,273.4,431.4z M358.9,401
			C358.9,401,358.9,401,358.9,401c-1.8,0.1-3.7-0.1-5.4,0.2c-0.6,0.1-1.3,1.1-1.4,1.8c-0.2,1.3,0.9,1,1.7,1c1.2,0,2.3,0,3.5,0
			c0.3,0,0.5,0.3,0.8,0.5c-0.2,0.2-0.4,0.6-0.7,0.7c-2.5,1.1-4.1,3.1-5.9,5c-0.8,0.8-0.4,1.8,0.9,1.8c1.9,0,1.2,0.4,0.8,1.7
			c-0.9,3.1,1.1,5.3,4.4,5.3c1.3,0,2.7,0.1,4,0c2.7-0.2,5.2-2.8,5.4-5.5c0.4-4.1-0.3-5.3-4-6.5c-0.4-0.1-0.9-0.5-1-0.8
			c-0.1-0.4,0.3-1.1,0.5-1.2c2.9-0.2,0.7-2.4,1.4-3.4c-0.9-0.2-1.7-0.5-2.6-0.6C360.6,400.9,359.7,401,358.9,401z M320,390
			c0-0.3,0-0.7,0-1c0.1-2.3-0.1-4.4-1.7-6.3c-1.4-1.5-3.1-0.6-4.7-0.7c-1.4,0-1.7-0.5-1.6-1.8c0-0.3,0-0.7,0-1
			c0.1-1.1-0.5-1.4-1.5-1.3c-0.9,0-1.6,0.1-1.5,1.3c0,0.8,0.2,2.1-0.2,2.3c-0.7,0.5-1.8,0.3-2.8,0.4c-0.3,0-0.8-0.1-1,0
			c-0.4,0.3-0.9,0.8-1,1.3c-0.1,0.7-0.3,1.7,1,1.7c1,0,2-0.1,3,0c0.3,0,0.6,0.5,0.9,0.8c-1.7,1.7-0.1,4.5-2.3,6
			c-0.9,0.6-1.7,1.6-2.5,2.5c-0.2,0.2-0.3,0.7-0.2,0.9c0.2,0.3,0.7,0.7,1,0.7c1.3,0,2.7,0.4,3.5-1c1.5-2.7,3.5-5.2,3.5-8.5
			c0-0.4,0.2-1.2,0.4-1.3c1-0.2,2-0.2,2.9-0.1c0.3,0.1,0.6,1,0.6,1.6c0.1,1.7-0.1,3.3,0.1,5c0.2,2.1-0.6,2.6-2.5,2.4
			c-0.5-0.1-1,0.4-1.6,0.7c0.4,0.7,0.6,1.6,1.2,1.9c2.8,1.5,6.2-0.4,6.7-3.7C320.1,392,320,391,320,390z M318.4,418
			c0,0.1,0,0.2,0,0.3c1.6-0.3,3.2-0.4,4.7-1c3.9-1.4,4.9-4.4,5-8.3c0-2.2-1.1-3.2-2.2-4.6c-1.4-1.7-3.6-1.1-5-2.3
			c-3.3,1.2-6.6,2-10.1,2.1c-0.3,0-0.7,1-0.7,1.5c0,0.5,0.5,1.4,0.8,1.4c2,0.1,4.2,0.5,5.8-0.3c2.1-1,4.2-0.4,6.2-0.6
			c0.3,0,0.9,0.7,1.1,1.1c2,3.9,0,7.6-4.3,7.8c-0.8,0-1.7,0-2.5,0c-1.3,0.1-2.3,0.9-2.2,2.1c0.1,1.6,1.5,0.6,2.4,0.9
			C317.7,418.1,318.1,418,318.4,418z M331.7,409.6c0.3,0.8,0.5,2.1,1.1,2.3c3.9,1.8,7.5,3.8,10.6,6.9c0.4,0.4,1.5,0,2.3,0
			c0-0.9,0.1-1.8-0.1-2.7c-0.1-0.4-0.6-0.8-1-1c-2.5-1.5-5-3-7.5-4.6c-1-0.6-1-1.4,0.1-2.1c2.4-1.5,4.7-3,7.1-4.4
			c1.3-0.7,0.5-1.7,0.8-2.5c-0.8-0.2-1.5-0.5-2.3-0.5c-0.4,0-0.7,0.6-1.1,0.8c-2.4,1.8-4.8,3.4-7.6,4.5
			C332.6,407,331.6,407.7,331.7,409.6z M344,387.5c0,2.7,0,5.3,0,8c0,1,0.2,1.5,1.3,1.5c1.2,0,1.8-0.3,1.7-1.6c-0.1-1.7,0-3.3,0-5
			c0-2.6,0-2.6,2.5-1.4c1.5,0.8,3.1,1.5,4.5,2.5c0.8,0.5,1.6,0.9,2,0c0.3-0.6,0.1-1.8-0.3-2.3c-1.2-1.2-2.6-2.7-4.2-3.1
			c-3.8-0.8-5-3-4.4-6.6c0-0.2,0.1-0.4,0-0.5c-0.4-0.4-0.8-0.9-1.3-1c-0.7-0.1-1.7-0.3-1.7,1C344,381.9,344,384.7,344,387.5z
			 M247,379.5c-0.1-0.5,0-0.9-0.2-1.1c-2.7-2.7-5.3-5.5-8.1-8c-0.8-0.7-2.4-1.4-2.8,0.9c-0.1,0.5-0.7,1.1-1.2,1.5
			c-1.3,1.1-0.9,2.2,0.2,2.7c3.6,1.6,7.3,3.1,11,4.5C246.2,380.1,246.7,379.6,247,379.5z M232.5,380c-0.2,0.3-0.5,0.6-0.5,1
			c-0.1,0.8,0,1.7,0,2.5c0,3.5,0,3.4,3.4,2.6c0.8-0.2,1.6-0.1,2.4-0.1c1.2,0,2.3,0.1,3.5,0c1.2-0.2,2.4-0.6,3.6-1
			c0.4-0.1,0.7-0.4,1-0.6c-0.3-0.1-0.6-0.3-0.8-0.4c-3.9-1.3-7.8-2.7-11.8-4C233.1,380,232.9,380,232.5,380z M331,389
			c2.7,0,5.3,0,8,0c1.3,0,1.1-1,1-1.7c-0.1-0.5-0.6-1.2-1-1.2c-5-0.1-10-0.1-14.9-0.1c-1.3,0-1.1,1-1,1.7c0.1,0.5,0.6,1.2,1,1.2
			C326.3,389.1,328.7,389,331,389z"/>
		<path class="st1" d="M273.4,431.4c-1-0.5-1.9-1-2.9-1.4c-6.8-2.4-13.1-6-20.1-8.2c-1.2-0.4-2.1-1.2-3.2-1.8
			c-1.5-0.8-3.8-0.9-4-2.8c-0.2-1.6,0.4-3.5,1.2-4.9c1.3-2.3,2.1-4.8,3.1-7.2c2.6-6.1,5.4-12,8-18.1c3-7.1,5.7-14.3,9.2-21.2
			c0.4-0.8,0.3-2.5,0.8-2.6c1.5-0.3,3.1-0.5,4.7,0.2c2,0.9,3.8,2,5.9,2.7c3.6,1.1,6.9,3.4,10.5,4.7c1.2,0.4,1.3,1,1.7,1.8
			c1.8,4.6,3.8,9.1,5.6,13.7c0.3,0.7,0,1.9-0.3,2.7c-2.6,6.1-5.5,12-8,18.1c-2.9,7.1-5.7,14.3-9.2,21.1c-0.1,0.1-0.2,0.3-0.2,0.4
			C276.4,430.7,275.4,431.3,273.4,431.4z M284.2,373.1c-0.3-0.3-0.6-0.8-1.1-1.1c-0.7-0.3-1.5-0.4-2.2-0.7c-3.7-1.6-7.3-3.3-11-4.9
			c-1.8-0.8-2.1-0.7-3,1.2c-2.7,5.7-5.7,11.3-7.8,17.3c-2.1,6-5.2,11.5-7.2,17.5c-1.4,4.2-3.7,8.1-5.2,12.3
			c-0.5,1.3-1.2,1.5,0.6,2.4c5.6,2.9,11.9,4.4,17.2,7.9c2.7-0.1,4.6,1.8,6.8,2.8c1.1,0.4,2.1,1,2.8-1.2c1.2-3.5,3.5-6.6,4.7-10
			c1.4-4.1,3.4-7.9,4.9-11.9c1.6-4,3.5-7.9,5-11.9c0.6-1.5,1.2-3,1.9-4.5c-1.7-0.7-3.4-1.5-5.1-2.2c-0.4-0.2-1-0.1-1.4-0.3
			c-3.6-1.5-3.9-2.5-2.3-6.2C282.8,377.6,283.4,375.5,284.2,373.1z M284,380.6c0.3,0.8-0.8,2.1,0.9,2.4c1.8,0.2,3.2,2.9,4.8,1.5
			c0.9-0.8-0.5-2.8-1.6-3.9c-0.2-0.2,0-0.7-0.1-0.9c-0.5-1.2-1.1-2.3-1.6-3.5c-0.8,1.2-1.6,2.3-2.3,3.5
			C283.9,379.9,284,380.3,284,380.6z"/>
		<path class="st2" d="M360,391c-0.9-0.1-2.1,0.4-2-1.3c0.1-1.9,1.1-3.2,2.3-4.6c1.2-1.3,1-1.7-0.6-2.2c-0.6-0.2-1.1-0.4-1.7-0.6
			c0.4-0.7,0.6-1.7,1.2-2c1.4-0.7,3.2-0.6,4.1-2.2c0.1-0.2,1.1-0.3,1.3-0.1c1.7,2.7,4.4,1.8,6.8,1.8c1.3,0,1.7,0.4,1.7,1.7
			c0,1.1-0.4,1.4-1.5,1.4c-1.3-0.1-2.7-0.1-4,0c-1.1,0.1-2.5-0.7-3.4,0.6c1.1,0.1,2.3,0.1,3.4,0.4c1.7,0.4,3.2,1.3,5.1,1
			c0.8-0.1,2.2-0.7,2.3,0.8c0,0.6-0.8,1.8-1.3,1.9c-2.5,0.2-2.9,2.5-3.5,4c-0.8,1.8-1.3,1.5-2.3,0.5c-0.4-0.4-1.2-1.2-1.4-1.1
			c-0.8,0.6-1.5,1.3-2.1,2.1c0,0,0.4,0.7,0.7,0.7c2.5,0.1,5,0,7.5,0.1c0.5,0,1,0.5,1.5,0.7c-0.3,0.5-0.6,1.1-0.9,1.6
			c-0.1,0.1-0.2,0.3-0.3,0.3c-3.4,0.1-6.7,0.9-10.1-0.5c-1.2-0.5-1.9-0.9-1.7-2.3c0.1-1,0-2,0-3c0.3-0.3,0.7-0.7,2.9-2.5
			c1.1-1.5,0.8-1.5,0.4-1.5c-1.3,0-2,0.8-2.3,2c-0.1,0.3-0.1,0.9,0,0.9c1,0.2,1.9-0.1,2.6-0.9c0.3-0.3,0.9-0.2,1.3-0.4
			c0.4-0.3,0.7-0.7,1.1-1c-0.5-0.3-1-0.5-3,0.9C361.2,390.2,360.1,389.5,360,391z"/>
		<path class="st3" d="M358.9,401c0.8,0,1.7-0.1,2.5,0c0.9,0.1,1.8,0.4,2.6,0.6c-0.7,1,1.5,3.2-1.4,3.4c-0.2,0-0.6,0.8-0.5,1.2
			c0,0.3,0.6,0.6,1,0.8c3.7,1.2,4.4,2.3,4,6.5c-0.3,2.7-2.7,5.3-5.4,5.5c-1.3,0.1-2.7,0-4,0c-3.3-0.1-5.3-2.2-4.4-5.3
			c0.4-1.3,1.1-1.7-0.8-1.7c-1.3,0-1.7-1-0.9-1.8c1.8-1.8,3.4-3.9,5.9-5c0.3-0.1,0.5-0.5,0.7-0.7c-0.3-0.2-0.5-0.5-0.8-0.5
			c-1.2-0.1-2.3,0-3.5,0c-0.7,0-1.9,0.3-1.7-1c0.1-0.7,0.8-1.7,1.4-1.8C355.2,400.9,357.1,401.1,358.9,401
			C358.9,401,358.9,401,358.9,401z M364,413.1c0-2.3-1.1-3.9-2.5-4c-1.9-0.2-3.9-0.3-5.6,0.9c-0.2,0.2-0.5,0.3-0.8,0.4
			c0.3,0.2,0.7,0.6,1,0.6c2,0.1,4,0,4.9,2.5c0.3,0.7,1.5,1,2.3,1.5C363.7,414.1,363.9,413.3,364,413.1z M359.4,414.4
			c-1.1-0.2-2-0.4-2.8-0.4c-0.2,0-0.6,0.8-0.5,1.2c0.4,1.4,1.6,0.6,2.4,0.7C358.6,416,358.9,415.2,359.4,414.4z"/>
		<path class="st4" d="M320,390c0,1,0.1,2,0,3c-0.5,3.2-4,5.2-6.7,3.7c-0.6-0.3-0.8-1.3-1.2-1.9c0.5-0.2,1.1-0.7,1.6-0.7
			c1.9,0.2,2.7-0.3,2.5-2.4c-0.2-1.6,0-3.3-0.1-5c0-0.6-0.3-1.5-0.6-1.6c-0.9-0.2-2-0.1-2.9,0.1c-0.2,0-0.4,0.8-0.4,1.3
			c0.1,3.4-2,5.8-3.5,8.5c-0.8,1.5-2.3,1.1-3.5,1c-0.4,0-0.8-0.4-1-0.7c-0.1-0.2,0-0.7,0.2-0.9c0.8-0.9,1.5-1.8,2.5-2.5
			c2.2-1.5,0.7-4.4,2.3-6c-0.3-0.3-0.6-0.8-0.9-0.8c-1-0.1-2-0.1-3,0c-1.3,0-1.2-0.9-1-1.7c0.1-0.5,0.6-0.9,1-1.3c0.2-0.2,0.6,0,1,0
			c1-0.1,2.1,0,2.8-0.4c0.4-0.3,0.3-1.5,0.2-2.3c0-1.2,0.6-1.3,1.5-1.3c1,0,1.6,0.2,1.5,1.3c0,0.3,0,0.7,0,1
			c-0.1,1.2,0.2,1.7,1.6,1.8c1.6,0.1,3.3-0.8,4.7,0.7c1.6,1.8,1.9,4,1.7,6.3C320,389.3,320,389.7,320,390z"/>
		<path class="st3" d="M318.4,418c-0.3,0-0.7,0.1-1,0c-0.8-0.2-2.3,0.7-2.4-0.9c-0.1-1.3,0.9-2,2.2-2.1c0.8-0.1,1.7,0,2.5,0
			c4.3-0.2,6.3-3.9,4.3-7.8c-0.2-0.5-0.8-1.1-1.1-1.1c-2.1,0.2-4.1-0.4-6.2,0.6c-1.6,0.8-3.9,0.3-5.8,0.3c-0.3,0-0.8-0.9-0.8-1.4
			c0-0.5,0.4-1.5,0.7-1.5c3.5-0.1,6.9-0.9,10.1-2.1c1.5,1.2,3.7,0.6,5,2.3c1.1,1.4,2.2,2.5,2.2,4.6c-0.1,3.9-1.1,6.9-5,8.3
			c-1.5,0.5-3.1,0.6-4.7,1C318.4,418.2,318.4,418.1,318.4,418z"/>
		<path class="st2" d="M331.7,409.6c-0.2-1.9,0.8-2.6,2.3-3.2c2.8-1.1,5.2-2.8,7.6-4.5c0.4-0.3,0.7-0.8,1.1-0.8
			c0.8,0,1.5,0.3,2.3,0.5c-0.3,0.8,0.6,1.8-0.8,2.5c-2.5,1.3-4.8,2.9-7.1,4.4c-1.1,0.7-1.1,1.5-0.1,2.1c2.5,1.5,5,3,7.5,4.6
			c0.4,0.3,0.9,0.6,1,1c0.2,0.9,0.1,1.8,0.1,2.7c-0.8,0-1.9,0.4-2.3,0c-3.1-3-6.7-5.1-10.6-6.9C332.2,411.7,332.1,410.4,331.7,409.6
			z"/>
		<path class="st5" d="M344,387.5c0-2.8,0-5.7,0-8.5c0-1.3,1-1.1,1.7-1c0.5,0.1,0.9,0.6,1.3,1c0.1,0.1,0,0.3,0,0.5
			c-0.6,3.6,0.6,5.8,4.4,6.6c1.6,0.3,2.9,1.9,4.2,3.1c0.5,0.4,0.6,1.7,0.3,2.3c-0.4,0.9-1.2,0.6-2,0c-1.4-0.9-2.9-1.7-4.5-2.5
			c-2.4-1.2-2.4-1.2-2.5,1.4c0,1.7-0.1,3.3,0,5c0.1,1.4-0.5,1.7-1.7,1.6c-1.1,0-1.4-0.5-1.3-1.5C344,392.9,344,390.2,344,387.5z"/>
		<path class="st1" d="M247,379.5c-0.3,0.2-0.8,0.6-1.1,0.5c-3.7-1.5-7.4-2.9-11-4.5c-1.2-0.5-1.6-1.6-0.2-2.7
			c0.5-0.4,1.1-0.9,1.2-1.5c0.4-2.3,2-1.6,2.8-0.9c2.8,2.5,5.4,5.3,8.1,8C247,378.6,247,379,247,379.5z"/>
		<path class="st6" d="M232.5,380c0.4,0,0.6,0,0.7,0c3.9,1.3,7.9,2.7,11.8,4c0.3,0.1,0.6,0.2,0.8,0.4c-0.3,0.2-0.6,0.5-1,0.6
			c-1.2,0.4-2.4,0.8-3.6,1c-1.1,0.2-2.3,0-3.5,0c-0.8,0-1.7-0.1-2.4,0.1c-3.4,0.8-3.4,0.8-3.4-2.6c0-0.8-0.1-1.7,0-2.5
			C232.1,380.6,232.4,380.3,232.5,380z"/>
		<path class="st7" d="M249,375c-2.2-2.7-4.3-5.3-6.5-7.9c-0.9-1.1-0.6-1.8,0.3-2.4c1.2-0.7,2.5-1.2,3.8-1.6
			c0.3-0.1,1.2,0.5,1.3,0.9c0.7,3.7,2.5,7.2,2.1,11.1C249.7,375,249.3,375,249,375z"/>
		<path class="st8" d="M331,389c-2.3,0-4.6,0.1-7-0.1c-0.4,0-0.9-0.7-1-1.2c-0.1-0.7-0.4-1.7,1-1.7c5,0,10,0,14.9,0.1
			c0.3,0,0.9,0.7,1,1.2c0.1,0.7,0.4,1.7-1,1.7C336.3,389,333.7,389,331,389z"/>
		<path class="st9" d="M354,380c0.4-0.3,1.2-1,1.2-0.9c0.6,0.6,1.4,1.3,1.7,2.1c0.2,0.5-0.2,1.2-0.4,1.8c-0.6-0.2-1.1-0.4-1.7-0.6
			c-0.3-0.1-0.6-0.2-0.9-0.3C354,381.3,354,380.7,354,380z"/>
		<path class="st10" d="M354,380c0,0.7,0,1.3,0,2c-0.9-0.1-2.2,0.4-2-1.2C352.2,379.5,353.3,380.1,354,380z"/>
		<path class="st11" d="M249,375c0.3,0,0.7,0,1,0c0.3,0.2,0.6,0.4,0.9,0.6c-0.3,0.1-0.6,0.4-0.7,0.4
			C249.7,375.7,249.4,375.3,249,375z"/>
		<path class="st12" d="M360,391c0.1-1.5,1.2-0.8,2-1c-0.3,0.3-0.7,0.7-1,1C360.7,391,360.3,391,360,391z"/>
		<path class="st13" d="M284.2,373.1c-0.8,2.4-1.4,4.5-2.2,6.4c-1.6,3.7-1.3,4.7,2.3,6.2c0.4,0.2,0.9,0.1,1.4,0.3
			c1.7,0.7,3.4,1.5,5.1,2.2c-0.6,1.5-1.3,3-1.9,4.5c-1.5,4-3.5,7.9-5,11.9c-1.6,4-3.5,7.8-4.9,11.9c-1.2,3.5-3.6,6.5-4.7,10
			c-0.7,2.1-1.8,1.6-2.8,1.2c-2.3-1-4.1-2.9-6.8-2.8c-5.4-3.4-11.6-5-17.2-7.9c-1.7-0.9-1-1.1-0.6-2.4c1.6-4.2,3.8-8.1,5.2-12.3
			c2.1-6,5.1-11.5,7.2-17.5c2.1-5.9,5.1-11.5,7.8-17.3c0.9-1.9,1.3-2,3-1.2c3.7,1.6,7.3,3.3,11,4.9c0.7,0.3,1.5,0.3,2.2,0.7
			C283.6,372.3,283.9,372.8,284.2,373.1z"/>
		<path class="st14" d="M284,380.6c0-0.3-0.1-0.7,0-1c0.7-1.2,1.5-2.3,2.3-3.5c0.6,1.2,1.1,2.3,1.6,3.5c0.1,0.3-0.1,0.7,0.1,0.9
			c1.1,1.2,2.5,3.1,1.6,3.9c-1.6,1.4-3.1-1.3-4.8-1.5C283.2,382.8,284.3,381.4,284,380.6z"/>
		<path class="st12" d="M365.8,387c0.1,0.1,0.6,0.3,1.1,0.6c-0.4,0.4-0.7,0.8-1.1,1c-0.4,0.2-1,0.1-1.3,0.4
			c-0.7,0.8-1.5,1.2-2.6,0.9c-0.1,0-0.1-0.6,0-0.9c0.3-1.2,1-2,2.3-2C364.7,387,365,387,365.8,387z"/>
		<path class="st15" d="M364,413.1c-0.1,0.2-0.4,1.1-0.6,1.9c-0.8-0.5-2-0.8-2.3-1.5c-0.9-2.5-2.9-2.4-4.9-2.5c-0.4,0-0.7-0.4-1-0.6
			c0.3-0.1,0.6-0.2,0.8-0.4c1.7-1.2,3.7-1.1,5.6-0.9C362.9,409.2,364,410.8,364,413.1z"/>
		<path class="st16" d="M359.4,414.4c-0.5,0.8-0.7,1.5-0.9,1.5c-0.8-0.1-2.1,0.7-2.4-0.7c-0.1-0.3,0.3-1.2,0.5-1.2
			C357.4,414.1,358.2,414.3,359.4,414.4z"/>
	</g>
</g>
</svg>
