
<svg xmlns="http://www.w3.org/2000/svg" version="1.1" xmlns:xlink="http://www.w3.org/1999/xlink" preserveAspectRatio="none" x="0px" y="0px" width="908px" height="670px" viewBox="0 0 908 670">
<defs>
<image id="bitmap20_PNG" x="0" y="0" width="77" height="242" xlink:href="./images/bitmap20_PNG.png"/>

<image id="bitmap25_PNG" x="0" y="0" width="24" height="24" xlink:href="./images/bitmap25_PNG.png"/>

<pattern id="Pattern_1" patternUnits="userSpaceOnUse" patternTransform="matrix( 1, 0, 0, 1, 260.9,101.85) " width="77" height="242">
<use xlink:href="#bitmap20_PNG"/>
</pattern>

<pattern id="Pattern_2" patternUnits="userSpaceOnUse" patternTransform="matrix( 1, 0, 0, 1, 307.4,106.4) " width="24" height="24">
<use xlink:href="#bitmap25_PNG"/>
</pattern>

<filter id="Filter_1" x="-20%" y="-20%" width="140%" height="140%" color-interpolation-filters="sRGB">
<feColorMatrix in="SourceGraphic" type="matrix" values="1 0 0 0 0 0 1 0 0 0 0 0 1 0 0 0 0 0 0.3 0" result="result1"/>
</filter>

<filter id="Filter_2" x="-20%" y="-20%" width="140%" height="140%" color-interpolation-filters="sRGB">
<feColorMatrix in="SourceGraphic" type="matrix" values="1 0 0 0 0 0 1 0 0 0 0 0 1 0 0 0 0 0 0.5 0" result="result1"/>
</filter>

<g id="Symbol_22_0_Layer0_0_FILL">
<path fill="url(#Pattern_1)" stroke="none" d="
M 335.95 102.9
L 335.9 102.85 261.9 102.9 261.9 341.9 335.9 341.9 335.95 341.9 335.95 102.9 Z"/>
</g>

<g id="Symbol_23_0_Layer1_0_FILL">
<path fill="#FEFEFE" stroke="none" d="
M -246.95 -60.95
L -247 -60.95 -247 172.7 -246.95 172.75 -178.5 172.75 -178.45 172.7 -178.45 -40.05 -202.1 -60.95 -246.95 -60.95 Z"/>
</g>

<g id="Symbol_27_0_Layer0_0_FILL">
<path fill="url(#Pattern_2)" stroke="none" d="
M 329.45 128.45
L 329.5 128.45 329.5 107.45 329.45 107.4 308.45 107.4 308.4 107.45 308.4 128.45 308.45 128.45 329.45 128.45 Z"/>
</g>

<g id="Symbol_28_0_Layer1_0_FILL">
<path fill="#C4C4C4" stroke="none" d="
M 324.4 123.3
L 325.65 123.25 326.05 123.25 327 123.25 327.85 123.4
Q 328.85 123.55 329.55 124.05
L 329.55 124 311.45 108.35 311.4 108.4 311.6 108.85 312.15 110.1 312.5 110.95 312.9 112 313.3 113.15 313.65 114.4 314.05 115.7 314.35 117.1 314.55 118.55 314.75 120 314.8 121.5 314.75 122.95 314.55 124.35 314.2 125.75 314.2 125.8 314.25 125.8 314.75 125.6 316.1 125.15 317.05 124.85 318.15 124.55 319.3 124.25 320.55 123.95 321.85 123.7 323.15 123.45 324.4 123.3 Z"/>
</g>

<g id="Symbol_28_0_Layer0_0_FILL">
<path fill="#C4C4C4" stroke="none" d="
M 319 117.3
L 321.75 117.3 321.75 117.2 319.05 114.9 319 114.9 319 117.25 319 117.3 Z"/>
</g>

<path id="Symbol_23_0_Layer0_0_1_STROKES" stroke="#000000" stroke-width="1" stroke-linejoin="miter" stroke-linecap="butt" stroke-miterlimit="1" fill="none" d="
M -202.1 -60.95
L -246.95 -60.95 -246.95 172.7 -178.5 172.7 -178.5 -40 -202.1 -60.95 Z"/>
</defs>

<g id="cardMc_001_a" transform="matrix( 0.5999908447265625, 0, 0, 0.5999908447265625, 29.5,-78) ">
<g transform="matrix( 1, 0, 0, 1, -261.9,-102.85) ">
<g transform="matrix( 1, 0, 0, 1, 0,0) ">
<use filter="url(#Filter_1)" xlink:href="#Symbol_22_0_Layer0_0_FILL"/>
</g>
</g>

<g transform="matrix( 1, 0, 0, 1, -261.9,-102.85) ">
<g transform="matrix( 1, 0, 0, 1, 510.2,165.15) ">
<g transform="matrix( 1, 0, 0, 1, 0,0) ">
<use xlink:href="#Symbol_23_0_Layer1_0_FILL"/>
</g>

<g transform="matrix( 1, 0, 0, 1, 0,0) ">
<use xlink:href="#Symbol_23_0_Layer0_0_1_STROKES"/>
</g>
</g>
</g>

<g transform="matrix( 1, 0, 0, 1, -261.9,-102.85) ">
<g transform="matrix( 1, 0, 0, 1, 0,0) ">
<use filter="url(#Filter_2)" xlink:href="#Symbol_27_0_Layer0_0_FILL"/>
</g>
</g>

<g transform="matrix( 1, 0, 0, 1, -261.9,-102.85) ">
<g transform="matrix( 1, 0, 0, 1, 0,0) ">
<g transform="matrix( 1, 0, 0, 1, 0,0) ">
<use xlink:href="#Symbol_28_0_Layer1_0_FILL"/>
</g>

<g transform="matrix( 1, 0, 0, 1, 0,0) ">
<use xlink:href="#Symbol_28_0_Layer0_0_FILL"/>
</g>
</g>
</g>

<g id="bodyTf" transform="matrix( 1, 0, 0, 1, 4,25.05) "/>
</g>
</svg>
